<svg width="24" height="24" viewBox="0 0 24 24" fill="none" xmlns="http://www.w3.org/2000/svg">
<path d="M9.98821 21.1925C10.3787 21.583 11.0119 21.583 11.4024 21.1925C11.7929 20.8019 11.7929 20.1688 11.4024 19.7782L4.62369 12.9995L21.791 12.9995C22.3433 12.9995 22.791 12.5518 22.791 11.9995C22.791 11.4472 22.3433 10.9995 21.791 10.9995L4.6248 10.9995L11.4024 4.2219C11.7929 3.83137 11.7929 3.19821 11.4024 2.80768C11.0119 2.41716 10.3787 2.41716 9.98821 2.80768L1.52962 11.2663C1.33278 11.4489 1.2096 11.7098 1.2096 11.9995C1.2096 12.1884 1.26197 12.3651 1.353 12.5158C1.39411 12.584 1.44408 12.6483 1.50293 12.7072L9.98821 21.1925Z" fill="#FD5B4F"/>
</svg>
